<svg width="256" height="256" viewBox="0 0 256 256" fill="none" xmlns="http://www.w3.org/2000/svg">
<circle cx="128" cy="128" r="128" fill="url(#paint0_linear_1_90)"/>
<path d="M58.8706 70.5455L92.5524 166.051H93.8819L127.564 70.5455H141.967L100.308 184H86.1262L44.4672 70.5455H58.8706ZM187.989 70.5455H201.727V151.648C201.727 158.886 200.398 165.036 197.739 170.095C195.08 175.155 191.331 178.996 186.493 181.618C181.655 184.24 175.949 185.551 169.375 185.551C163.171 185.551 157.649 184.425 152.811 182.172C147.973 179.882 144.169 176.632 141.399 172.422C138.629 168.212 137.244 163.207 137.244 157.409H150.762C150.762 160.622 151.556 163.429 153.144 165.83C154.769 168.193 156.985 170.04 159.791 171.369C162.598 172.699 165.793 173.364 169.375 173.364C173.327 173.364 176.688 172.533 179.458 170.871C182.227 169.209 184.333 166.771 185.773 163.558C187.25 160.308 187.989 156.338 187.989 151.648V70.5455Z" fill="#F43F5E"/>
<defs>
<linearGradient id="paint0_linear_1_90" x1="128" y1="0" x2="128" y2="256" gradientUnits="userSpaceOnUse">
<stop stop-color="#040308"/>
<stop offset="1" stop-color="#121226"/>
</linearGradient>
</defs>
</svg>
