<svg width="144" height="49" viewBox="0 0 144 49" fill="none" xmlns="http://www.w3.org/2000/svg">
<path d="M142.18 2.57031L143.094 5.24219C141.234 5.82031 139.953 6.85938 139.25 8.35938C138.547 9.84375 138.195 11.5469 138.195 13.4688V18.3203C138.195 19.8828 137.875 21.3047 137.234 22.5859C136.609 23.8516 135.609 24.8594 134.234 25.6094C132.875 26.3594 131.086 26.7344 128.867 26.7344V23.875C130.633 23.875 131.898 23.375 132.664 22.375C133.445 21.375 133.836 20.0234 133.836 18.3203V13.4688C133.836 11.8281 134.086 10.2969 134.586 8.875C135.102 7.4375 135.961 6.17969 137.164 5.10156C138.383 4.00781 140.055 3.16406 142.18 2.57031ZM143.094 45.8828L142.18 48.5781C140.055 47.9688 138.383 47.125 137.164 46.0469C135.961 44.9688 135.102 43.7109 134.586 42.2734C134.086 40.8516 133.836 39.3203 133.836 37.6797V32.8516C133.836 31.7109 133.664 30.7266 133.32 29.8984C132.977 29.0703 132.438 28.4297 131.703 27.9766C130.984 27.5078 130.039 27.2734 128.867 27.2734V24.4141C131.086 24.4141 132.875 24.7891 134.234 25.5391C135.609 26.2891 136.609 27.3047 137.234 28.5859C137.875 29.8516 138.195 31.2734 138.195 32.8516V37.6797C138.195 38.9609 138.344 40.1484 138.641 41.2422C138.953 42.3359 139.461 43.2812 140.164 44.0781C140.883 44.8906 141.859 45.4922 143.094 45.8828Z" fill="url(#paint0_linear_342_32)"/>
<path d="M11.696 22.7273H15.196V39.2273C15.196 40.7197 14.9006 41.9962 14.3097 43.0568C13.7263 44.1174 12.9044 44.928 11.8438 45.4886C10.7831 46.0417 9.54072 46.3182 8.11648 46.3182C6.80587 46.3182 5.62784 46.0795 4.58239 45.6023C3.54451 45.125 2.72254 44.4318 2.11648 43.5227C1.51799 42.6061 1.21875 41.4924 1.21875 40.1818H4.70739C4.70739 40.8258 4.85511 41.3826 5.15057 41.8523C5.4536 42.322 5.86648 42.6894 6.3892 42.9545C6.91951 43.2121 7.52557 43.3409 8.20739 43.3409C8.94981 43.3409 9.5786 43.1856 10.0938 42.875C10.6165 42.5568 11.0142 42.0909 11.2869 41.4773C11.5597 40.8636 11.696 40.1136 11.696 39.2273V22.7273ZM25.1136 46.3864C24.0076 46.3864 23.0076 46.1818 22.1136 45.7727C21.2197 45.3561 20.5114 44.7538 19.9886 43.9659C19.4735 43.178 19.2159 42.2121 19.2159 41.0682C19.2159 40.0833 19.4053 39.2727 19.7841 38.6364C20.1629 38 20.6742 37.4962 21.3182 37.125C21.9621 36.7538 22.6818 36.4735 23.4773 36.2841C24.2727 36.0947 25.0833 35.9508 25.9091 35.8523C26.9545 35.7311 27.803 35.6326 28.4545 35.5568C29.1061 35.4735 29.5795 35.3409 29.875 35.1591C30.1705 34.9773 30.3182 34.6818 30.3182 34.2727V34.1932C30.3182 33.2008 30.0379 32.4318 29.4773 31.8864C28.9242 31.3409 28.0985 31.0682 27 31.0682C25.8561 31.0682 24.9545 31.322 24.2955 31.8295C23.6439 32.3295 23.1932 32.8864 22.9432 33.5L19.75 32.7727C20.1288 31.7121 20.6818 30.8561 21.4091 30.2045C22.1439 29.5455 22.9886 29.0682 23.9432 28.7727C24.8977 28.4697 25.9015 28.3182 26.9545 28.3182C27.6515 28.3182 28.3902 28.4015 29.1705 28.5682C29.9583 28.7273 30.6932 29.0227 31.375 29.4545C32.0644 29.8864 32.6288 30.5038 33.0682 31.3068C33.5076 32.1023 33.7273 33.1364 33.7273 34.4091V46H30.4091V43.6136H30.2727C30.053 44.053 29.7235 44.4848 29.2841 44.9091C28.8447 45.3333 28.2803 45.6856 27.5909 45.9659C26.9015 46.2462 26.0758 46.3864 25.1136 46.3864ZM25.8523 43.6591C26.7917 43.6591 27.5947 43.4735 28.2614 43.1023C28.9356 42.7311 29.447 42.2462 29.7955 41.6477C30.1515 41.0417 30.3295 40.3939 30.3295 39.7045V37.4545C30.2083 37.5758 29.9735 37.6894 29.625 37.7955C29.2841 37.8939 28.8939 37.9811 28.4545 38.0568C28.0152 38.125 27.5871 38.1894 27.1705 38.25C26.7538 38.303 26.4053 38.3485 26.125 38.3864C25.4659 38.4697 24.8636 38.6098 24.3182 38.8068C23.7803 39.0038 23.3485 39.2879 23.0227 39.6591C22.7045 40.0227 22.5455 40.5076 22.5455 41.1136C22.5455 41.9545 22.8561 42.5909 23.4773 43.0227C24.0985 43.447 24.8902 43.6591 25.8523 43.6591ZM38.2528 46V28.5455H41.5369V31.3182H41.7188C42.0369 30.3788 42.5975 29.6402 43.4006 29.1023C44.2112 28.5568 45.1278 28.2841 46.1506 28.2841C46.3627 28.2841 46.6127 28.2917 46.9006 28.3068C47.196 28.322 47.4271 28.3409 47.5938 28.3636V31.6136C47.4574 31.5758 47.215 31.5341 46.8665 31.4886C46.518 31.4356 46.1695 31.4091 45.821 31.4091C45.018 31.4091 44.3021 31.5795 43.6733 31.9205C43.0521 32.2538 42.5597 32.7197 42.196 33.3182C41.8324 33.9091 41.6506 34.5833 41.6506 35.3409V46H38.2528ZM56.4432 46.3409C55.0341 46.3409 53.7765 45.9811 52.6705 45.2614C51.572 44.5341 50.7083 43.5 50.0795 42.1591C49.4583 40.8106 49.1477 39.1932 49.1477 37.3068C49.1477 35.4205 49.4621 33.8068 50.0909 32.4659C50.7273 31.125 51.5985 30.0985 52.7045 29.3864C53.8106 28.6742 55.0644 28.3182 56.4659 28.3182C57.5492 28.3182 58.4205 28.5 59.0795 28.8636C59.7462 29.2197 60.2614 29.6364 60.625 30.1136C60.9962 30.5909 61.2841 31.0114 61.4886 31.375H61.6932V22.7273H65.0909V46H61.7727V43.2841H61.4886C61.2841 43.6553 60.9886 44.0795 60.6023 44.5568C60.2235 45.0341 59.7008 45.4508 59.0341 45.8068C58.3674 46.1629 57.5038 46.3409 56.4432 46.3409ZM57.1932 43.4432C58.1705 43.4432 58.9962 43.1856 59.6705 42.6705C60.3523 42.1477 60.8674 41.4242 61.2159 40.5C61.572 39.5758 61.75 38.5 61.75 37.2727C61.75 36.0606 61.5758 35 61.2273 34.0909C60.8788 33.1818 60.3674 32.4735 59.6932 31.9659C59.0189 31.4583 58.1856 31.2045 57.1932 31.2045C56.1705 31.2045 55.3182 31.4697 54.6364 32C53.9545 32.5303 53.4394 33.2538 53.0909 34.1705C52.75 35.0871 52.5795 36.1212 52.5795 37.2727C52.5795 38.4394 52.7538 39.4886 53.1023 40.4205C53.4508 41.3523 53.9659 42.0909 54.6477 42.6364C55.3371 43.1742 56.1856 43.4432 57.1932 43.4432ZM69.9403 46V28.5455H73.3381V46H69.9403ZM71.6562 25.8523C71.0653 25.8523 70.5578 25.6553 70.1335 25.2614C69.7169 24.8598 69.5085 24.3826 69.5085 23.8295C69.5085 23.2689 69.7169 22.7917 70.1335 22.3977C70.5578 21.9962 71.0653 21.7955 71.6562 21.7955C72.2472 21.7955 72.7509 21.9962 73.1676 22.3977C73.5919 22.7917 73.804 23.2689 73.804 23.8295C73.804 24.3826 73.5919 24.8598 73.1676 25.2614C72.7509 25.6553 72.2472 25.8523 71.6562 25.8523ZM77.9091 46V28.5455H81.1705V31.3864H81.3864C81.75 30.4242 82.3447 29.6742 83.1705 29.1364C83.9962 28.5909 84.9848 28.3182 86.1364 28.3182C87.303 28.3182 88.2803 28.5909 89.0682 29.1364C89.8636 29.6818 90.4508 30.4318 90.8295 31.3864H91.0114C91.428 30.4545 92.0909 29.7121 93 29.1591C93.9091 28.5985 94.9924 28.3182 96.25 28.3182C97.8333 28.3182 99.125 28.8144 100.125 29.8068C101.133 30.7992 101.636 32.2955 101.636 34.2955V46H98.2386V34.6136C98.2386 33.4318 97.9167 32.5758 97.2727 32.0455C96.6288 31.5152 95.8598 31.25 94.9659 31.25C93.8598 31.25 93 31.5909 92.3864 32.2727C91.7727 32.947 91.4659 33.8144 91.4659 34.875V46H88.0795V34.3977C88.0795 33.4508 87.7841 32.6894 87.1932 32.1136C86.6023 31.5379 85.8333 31.25 84.8864 31.25C84.2424 31.25 83.6477 31.4205 83.1023 31.7614C82.5644 32.0947 82.1288 32.5606 81.7955 33.1591C81.4697 33.7576 81.3068 34.4508 81.3068 35.2386V46H77.9091Z" fill="url(#paint1_linear_342_32)"/>
<path d="M60.3501 6.36364L63.5888 15.8409H63.7195L66.9581 6.36364H68.8558L64.6683 18H62.6399L58.4524 6.36364H60.3501ZM70.3999 18V9.27273H72.0987V18H70.3999ZM71.2578 7.92614C70.9624 7.92614 70.7086 7.82765 70.4964 7.63068C70.2881 7.42992 70.1839 7.19129 70.1839 6.91477C70.1839 6.63447 70.2881 6.39583 70.4964 6.19886C70.7086 5.99811 70.9624 5.89773 71.2578 5.89773C71.5533 5.89773 71.8052 5.99811 72.0135 6.19886C72.2256 6.39583 72.3317 6.63447 72.3317 6.91477C72.3317 7.19129 72.2256 7.42992 72.0135 7.63068C71.8052 7.82765 71.5533 7.92614 71.2578 7.92614ZM76.0831 12.8182V18H74.3842V9.27273H76.0149V10.6932H76.1229C76.3236 10.2311 76.638 9.85985 77.0661 9.57955C77.4979 9.29924 78.0414 9.15909 78.6967 9.15909C79.2914 9.15909 79.8123 9.28409 80.2592 9.53409C80.7062 9.7803 81.0528 10.1477 81.299 10.6364C81.5452 11.125 81.6683 11.7292 81.6683 12.4489V18H79.9695V12.6534C79.9695 12.0208 79.8047 11.5265 79.4751 11.1705C79.1456 10.8106 78.6929 10.6307 78.1172 10.6307C77.7232 10.6307 77.3729 10.7159 77.0661 10.8864C76.763 11.0568 76.5225 11.3068 76.3445 11.6364C76.1702 11.9621 76.0831 12.3561 76.0831 12.8182ZM83.9467 18V9.27273H85.6456V18H83.9467ZM84.1058 8.10795L85.4354 5.48864H87.2251L85.4638 8.10795H84.1058ZM91.6072 18.1761C90.7625 18.1761 90.0353 17.9848 89.4254 17.6023C88.8194 17.2159 88.3535 16.6837 88.0277 16.0057C87.7019 15.3277 87.5391 14.5511 87.5391 13.6761C87.5391 12.7898 87.7057 12.0076 88.0391 11.3295C88.3724 10.6477 88.8421 10.1155 89.4482 9.73295C90.0542 9.35038 90.7682 9.15909 91.5902 9.15909C92.2531 9.15909 92.844 9.2822 93.3629 9.52841C93.8819 9.77083 94.3004 10.1117 94.6186 10.5511C94.9406 10.9905 95.1319 11.5038 95.1925 12.0909H93.5391C93.4482 11.6818 93.2398 11.3295 92.9141 11.0341C92.5921 10.7386 92.1603 10.5909 91.6186 10.5909C91.1451 10.5909 90.7304 10.7159 90.3743 10.9659C90.022 11.2121 89.7474 11.5644 89.5504 12.0227C89.3535 12.4773 89.255 13.0152 89.255 13.6364C89.255 14.2727 89.3516 14.822 89.5447 15.2841C89.7379 15.7462 90.0107 16.1042 90.3629 16.358C90.719 16.6117 91.1375 16.7386 91.6186 16.7386C91.9406 16.7386 92.2322 16.6799 92.4936 16.5625C92.7588 16.4413 92.9804 16.2689 93.1584 16.0455C93.3402 15.822 93.4671 15.553 93.5391 15.2386H95.1925C95.1319 15.803 94.9482 16.3068 94.6413 16.75C94.3345 17.1932 93.9235 17.5417 93.4084 17.7955C92.897 18.0492 92.2966 18.1761 91.6072 18.1761ZM97.0092 18V9.27273H98.7081V18H97.0092ZM97.8672 7.92614C97.5717 7.92614 97.3179 7.82765 97.1058 7.63068C96.8975 7.42992 96.7933 7.19129 96.7933 6.91477C96.7933 6.63447 96.8975 6.39583 97.1058 6.19886C97.3179 5.99811 97.5717 5.89773 97.8672 5.89773C98.1626 5.89773 98.4145 5.99811 98.6229 6.19886C98.835 6.39583 98.9411 6.63447 98.9411 6.91477C98.9411 7.19129 98.835 7.42992 98.6229 7.63068C98.4145 7.82765 98.1626 7.92614 97.8672 7.92614ZM106.522 14.3807V9.27273H108.227V18H106.556V16.4886H106.465C106.264 16.9545 105.942 17.3428 105.499 17.6534C105.06 17.9602 104.513 18.1136 103.857 18.1136C103.297 18.1136 102.8 17.9905 102.369 17.7443C101.941 17.4943 101.603 17.125 101.357 16.6364C101.115 16.1477 100.994 15.5436 100.994 14.8239V9.27273H102.692V14.6193C102.692 15.214 102.857 15.6875 103.187 16.0398C103.516 16.392 103.944 16.5682 104.471 16.5682C104.789 16.5682 105.105 16.4886 105.42 16.3295C105.738 16.1705 106.001 15.9299 106.21 15.608C106.422 15.286 106.526 14.8769 106.522 14.3807ZM117.049 11.4034L115.509 11.6761C115.445 11.4792 115.343 11.2917 115.202 11.1136C115.066 10.9356 114.88 10.7898 114.646 10.6761C114.411 10.5625 114.117 10.5057 113.765 10.5057C113.284 10.5057 112.882 10.6136 112.56 10.8295C112.238 11.0417 112.077 11.3163 112.077 11.6534C112.077 11.9451 112.185 12.1799 112.401 12.358C112.617 12.536 112.966 12.6818 113.447 12.7955L114.833 13.1136C115.636 13.2992 116.235 13.5852 116.629 13.9716C117.022 14.358 117.219 14.8598 117.219 15.4773C117.219 16 117.068 16.4659 116.765 16.875C116.466 17.2803 116.047 17.5985 115.509 17.8295C114.975 18.0606 114.356 18.1761 113.651 18.1761C112.674 18.1761 111.877 17.9678 111.259 17.5511C110.642 17.1307 110.263 16.5341 110.123 15.7614L111.765 15.5114C111.867 15.9394 112.077 16.2633 112.396 16.483C112.714 16.6989 113.129 16.8068 113.64 16.8068C114.197 16.8068 114.642 16.6913 114.975 16.4602C115.308 16.2254 115.475 15.9394 115.475 15.6023C115.475 15.3295 115.373 15.1004 115.168 14.9148C114.968 14.7292 114.659 14.589 114.242 14.4943L112.765 14.1705C111.951 13.9848 111.348 13.6894 110.958 13.2841C110.572 12.8788 110.379 12.3655 110.379 11.7443C110.379 11.2292 110.522 10.7784 110.81 10.392C111.098 10.0057 111.496 9.70455 112.004 9.48864C112.511 9.26894 113.093 9.15909 113.748 9.15909C114.691 9.15909 115.433 9.36364 115.975 9.77273C116.517 10.178 116.875 10.7216 117.049 11.4034Z" fill="url(#paint2_linear_342_32)"/>
<circle cx="43.5" cy="12.5" r="2.5" fill="#31293E"/>
<circle cx="35.5" cy="12.5" r="2.5" fill="#31293E"/>
<circle cx="27.5" cy="12.5" r="2.5" fill="#31293E"/>
<defs>
<linearGradient id="paint0_linear_342_32" x1="135.5" y1="0" x2="135.5" y2="48" gradientUnits="userSpaceOnUse">
<stop stop-color="#463F51"/>
<stop offset="1" stop-color="#221931"/>
</linearGradient>
<linearGradient id="paint1_linear_342_32" x1="0" y1="30.5" x2="104" y2="30.5" gradientUnits="userSpaceOnUse">
<stop offset="0.387682" stop-color="#F43F5E"/>
<stop offset="1" stop-color="#8E1077"/>
</linearGradient>
<linearGradient id="paint2_linear_342_32" x1="118" y1="12.5" x2="58" y2="12.5" gradientUnits="userSpaceOnUse">
<stop stop-color="#FAE4D8"/>
<stop offset="1" stop-color="#948780"/>
</linearGradient>
</defs>
</svg>
